<svg
   xmlns:svg="http://www.w3.org/2000/svg"
   xmlns="http://www.w3.org/2000/svg"
   version="1.1"
   viewBox="0 0 104 25">
    <g
       aria-label="easy assets"
       fill="#fff">
      <path
         d="m 8.4924556,18.021141 q -2.2288499,0 -3.4480499,-1.352549 -1.2001499,-1.35255 -1.2001499,-3.7338 0,-1.65735 0.5905499,-2.83845 0.59055,-1.2001501 1.6764,-1.8288001 1.0858499,-0.62865 2.5336499,-0.62865 2.1526494,0 3.2956494,1.3716 1.16205,1.3716001 1.1049,3.9052501 l -5.7911994,1.0668 q 0.2667,0.8001 0.74295,1.1811 0.4953,0.36195 1.2953999,0.36195 0.55245,0 1.3144495,-0.1524 0.762,-0.17145 1.54305,-0.4572 l 0.43815,1.88595 q -0.70485,0.5334 -1.8288,0.8763 -1.1239495,0.342899 -2.2669494,0.342899 z m 1.4287499,-6.705599 q -0.0381,-0.7239 -0.4191,-1.04775 -0.3619499,-0.3429002 -1.0286999,-0.3429002 -0.55245,0 -1.04775,0.1524002 -0.40005,0.93345 -0.36195,2.0193 z" />
      <path
         d="m 16.731282,18.040191 q -1.2954,0 -2.07645,-0.704849 -0.78105,-0.7239 -0.78105,-1.84785 0,-1.50495 1.50495,-2.3622 1.524,-0.85725 4.4196,-0.97155 0,-0.89535 -0.1524,-1.31445 -0.13335,-0.43815 -0.51435,-0.59055 -0.36195,-0.17145 -1.12395,-0.17145 -0.78105,0 -1.1049,0.05715 l -0.78105,1.54305 -1.4097,-0.09525 q -0.32385,-1.524 -0.4572,-3.1623001 1.0668,-0.36195 2.3241,-0.5715 1.27635,-0.20955 2.38125,-0.20955 2.0193,0 2.8956,0.8001 0.8763,0.7810499 0.8763,2.6098501 v 3.98145 q 0,0.3429 0.05715,0.47625 0.0762,0.13335 0.3048,0.2667 l 0.762,0.43815 -0.0762,1.1811 q -2.2098,0.514349 -3.48615,0.571499 -0.0381,-0.114299 -0.1143,-0.400049 -0.0762,-0.3048 -0.13335,-0.5715 -0.74295,0.47625 -1.6383,0.762 -0.8763,0.285749 -1.6764,0.285749 z m 1.27635,-2.152649 q 0.762,0 1.84785,-0.51435 l -0.0762,-1.4478 q -0.4572,-0.0381 -0.6096,-0.0381 -0.51435,0 -1.20015,0.1143 -0.6858,0.09525 -1.08585,0.2286 -0.05715,0.24765 -0.05715,0.4572 0,0.5715 0.3048,0.89535 0.32385,0.3048 0.8763,0.3048 z" />
      <path
         d="m 28.079128,18.116391 q -1.50495,0 -3.48615,-0.533399 0.1143,-1.8669 0.24765,-2.76225 l 1.08585,-0.20955 1.20015,1.27635 q 0.62865,0.1905 1.4097,0.1905 0.43815,0 0.685799,-0.05715 0.05715,-0.1524 0.05715,-0.4191 0,-0.2286 -0.1143,-0.381 -0.09525,-0.1524 -0.457199,-0.36195 -0.36195,-0.20955 -1.2573,-0.6477 -1.12395,-0.59055 -1.7145,-1.04775 -0.59055,-0.47625 -0.85725,-0.97155 -0.24765,-0.4953 -0.24765,-1.1811 0,-1.5240002 1.12395,-2.4193501 1.143,-0.89535 3.0861,-0.89535 0.800099,0 1.676399,0.1905 0.89535,0.17145 1.6002,0.47625 0,1.2382499 -0.17145,2.7622501 l -0.9906,0.1524 -1.27635,-1.3716002 q -0.4953,-0.1524 -1.447799,-0.1524 -0.1524,0 -0.6096,0.0381 -0.05715,0.1143 -0.05715,0.3619502 0,0.2667 0.1524,0.47625 0.1524,0.1905 0.5334,0.43815 0.40005,0.2286 1.257299,0.66675 1.2573,0.6096 1.88595,1.0668 0.6477,0.43815 0.89535,0.89535 0.2667,0.4572 0.2667,1.1049 0,1.5621 -1.20015,2.4384 -1.1811,0.876299 -3.276599,0.876299 z" />
      <path
         d="m 36.994529,22.154991 q -1.3716,-0.9144 -2.4384,-2.3622 l 2.11455,-2.076449 -2.76225,-7.2771 q -0.20955,-0.5143502 -0.28575,-0.6667502 -0.0762,-0.1524 -0.28575,-0.4191 l -0.32385,-0.4190999 0.09525,-1.1049 h 4.8768 l 0.1905,1.6192499 -1.1049,0.2667 1.5621,4.7815502 1.7526,-4.3815 q 0.0381,-0.1143 0.0381,-0.1714502 0,-0.17145 -0.1524,-0.2286 l -0.89535,-0.381 0.17145,-1.5049499 h 3.6195 l 0.17145,1.5430499 -2.4384,5.3149502 q -1.31445,2.87655 -2.1717,4.514849 -0.85725,1.6383 -1.73355,2.95275 z" />
      <path
         d="m 50.961751,18.040191 q -1.2954,0 -2.07645,-0.704849 -0.78105,-0.7239 -0.78105,-1.84785 0,-1.50495 1.50495,-2.3622 1.524,-0.85725 4.4196,-0.97155 0,-0.89535 -0.1524,-1.31445 -0.13335,-0.43815 -0.51435,-0.59055 -0.36195,-0.17145 -1.12395,-0.17145 -0.78105,0 -1.1049,0.05715 l -0.78105,1.54305 -1.4097,-0.09525 q -0.32385,-1.524 -0.4572,-3.1623001 1.0668,-0.36195 2.3241,-0.5715 1.27635,-0.20955 2.38125,-0.20955 2.0193,0 2.8956,0.8001 0.8763,0.7810499 0.8763,2.6098501 v 3.98145 q 0,0.3429 0.05715,0.47625 0.0762,0.13335 0.3048,0.2667 l 0.762,0.43815 -0.0762,1.1811 q -2.2098,0.514349 -3.48615,0.571499 -0.0381,-0.114299 -0.1143,-0.400049 -0.0762,-0.3048 -0.13335,-0.5715 -0.74295,0.47625 -1.6383,0.762 -0.8763,0.285749 -1.6764,0.285749 z m 1.27635,-2.152649 q 0.762,0 1.84785,-0.51435 l -0.0762,-1.4478 q -0.4572,-0.0381 -0.6096,-0.0381 -0.51435,0 -1.20015,0.1143 -0.6858,0.09525 -1.08585,0.2286 -0.05715,0.24765 -0.05715,0.4572 0,0.5715 0.3048,0.89535 0.32385,0.3048 0.8763,0.3048 z" />
      <path
         d="m 62.309596,18.116391 q -1.50495,0 -3.48615,-0.533399 0.1143,-1.8669 0.24765,-2.76225 l 1.08585,-0.20955 1.20015,1.27635 q 0.62865,0.1905 1.4097,0.1905 0.43815,0 0.6858,-0.05715 0.05715,-0.1524 0.05715,-0.4191 0,-0.2286 -0.1143,-0.381 -0.09525,-0.1524 -0.4572,-0.36195 -0.36195,-0.20955 -1.2573,-0.6477 -1.12395,-0.59055 -1.7145,-1.04775 -0.59055,-0.47625 -0.85725,-0.97155 -0.24765,-0.4953 -0.24765,-1.1811 0,-1.5240002 1.12395,-2.4193501 1.143,-0.89535 3.0861,-0.89535 0.8001,0 1.6764,0.1905 0.89535,0.17145 1.6002,0.47625 0,1.2382499 -0.17145,2.7622501 l -0.9906,0.1524 -1.27635,-1.3716002 q -0.4953,-0.1524 -1.4478,-0.1524 -0.1524,0 -0.6096,0.0381 -0.05715,0.1143 -0.05715,0.3619502 0,0.2667 0.1524,0.47625 0.1524,0.1905 0.5334,0.43815 0.40005,0.2286 1.2573,0.66675 1.2573,0.6096 1.88595,1.0668 0.6477,0.43815 0.89535,0.89535 0.2667,0.4572 0.2667,1.1049 0,1.5621 -1.20015,2.4384 -1.1811,0.876299 -3.2766,0.876299 z" />
      <path
         d="m 70.978835,18.116391 q -1.50495,0 -3.48615,-0.533399 0.1143,-1.8669 0.24765,-2.76225 l 1.08585,-0.20955 1.20015,1.27635 q 0.62865,0.1905 1.4097,0.1905 0.43815,0 0.6858,-0.05715 0.05715,-0.1524 0.05715,-0.4191 0,-0.2286 -0.1143,-0.381 -0.09525,-0.1524 -0.4572,-0.36195 -0.36195,-0.20955 -1.2573,-0.6477 -1.12395,-0.59055 -1.7145,-1.04775 -0.59055,-0.47625 -0.85725,-0.97155 -0.24765,-0.4953 -0.24765,-1.1811 0,-1.5240002 1.12395,-2.4193501 1.143,-0.89535 3.0861,-0.89535 0.8001,0 1.6764,0.1905 0.89535,0.17145 1.6002,0.47625 0,1.2382499 -0.17145,2.7622501 l -0.9906,0.1524 -1.27635,-1.3716002 q -0.4953,-0.1524 -1.4478,-0.1524 -0.1524,0 -0.6096,0.0381 -0.05715,0.1143 -0.05715,0.3619502 0,0.2667 0.1524,0.47625 0.1524,0.1905 0.5334,0.43815 0.40005,0.2286 1.2573,0.66675 1.2573,0.6096 1.88595,1.0668 0.6477,0.43815 0.89535,0.89535 0.2667,0.4572 0.2667,1.1049 0,1.5621 -1.20015,2.4384 -1.1811,0.876299 -3.2766,0.876299 z" />
      <path
         d="m 81.306611,18.021141 q -2.22885,0 -3.44805,-1.352549 -1.20015,-1.35255 -1.20015,-3.7338 0,-1.65735 0.59055,-2.83845 0.59055,-1.2001501 1.6764,-1.8288001 1.08585,-0.62865 2.53365,-0.62865 2.15265,0 3.29565,1.3716 1.16205,1.3716001 1.1049,3.9052501 l -5.7912,1.0668 q 0.2667,0.8001 0.74295,1.1811 0.4953,0.36195 1.2954,0.36195 0.55245,0 1.31445,-0.1524 0.762,-0.17145 1.54305,-0.4572 l 0.43815,1.88595 q -0.70485,0.5334 -1.8288,0.8763 -1.12395,0.342899 -2.26695,0.342899 z m 1.42875,-6.705599 q -0.0381,-0.7239 -0.4191,-1.04775 -0.36195,-0.3429002 -1.0287,-0.3429002 -0.55245,0 -1.04775,0.1524002 -0.40005,0.93345 -0.36195,2.0193 z" />
      <path
         d="m 91.094147,18.040191 q -1.6764,0 -2.4765,-0.819149 -0.8001,-0.8382 -0.8001,-2.53365 v -4.62915 h -1.3335 V 8.6675919 l 3.429,-3.1241999 1.1049,0.13335 v 2.1526499 h 3.2004 v 2.2479001 h -3.2004 v 3.9243 q 0,0.9144 0.24765,1.2192 0.2667,0.3048 1.00965,0.3048 0.62865,0 1.7526,-0.17145 l 0.2286,1.9431 q -0.6858,0.32385 -1.54305,0.5334 -0.8382,0.209549 -1.61925,0.209549 z" />
      <path
         d="m 98.698074,18.116391 q -1.50495,0 -3.48615,-0.533399 0.1143,-1.8669 0.24765,-2.76225 l 1.08585,-0.20955 1.20015,1.27635 q 0.62865,0.1905 1.4097,0.1905 0.43815,0 0.6858,-0.05715 0.05715,-0.1524 0.05715,-0.4191 0,-0.2286 -0.1143,-0.381 -0.09525,-0.1524 -0.4572,-0.36195 -0.36195,-0.20955 -1.2573,-0.6477 -1.12395,-0.59055 -1.7145,-1.04775 -0.59055,-0.47625 -0.85725,-0.97155 -0.24765,-0.4953 -0.24765,-1.1811 0,-1.5240002 1.12395,-2.4193501 1.143,-0.89535 3.0861,-0.89535 0.800096,0 1.676396,0.1905 0.89535,0.17145 1.6002,0.47625 0,1.2382499 -0.17145,2.7622501 l -0.9906,0.1524 -1.27635,-1.3716002 q -0.495296,-0.1524 -1.447796,-0.1524 -0.1524,0 -0.6096,0.0381 -0.05715,0.1143 -0.05715,0.3619502 0,0.2667 0.1524,0.47625 0.1524,0.1905 0.5334,0.43815 0.40005,0.2286 1.257296,0.66675 1.2573,0.6096 1.88595,1.0668 0.6477,0.43815 0.89535,0.89535 0.2667,0.4572 0.2667,1.1049 0,1.5621 -1.20015,2.4384 -1.1811,0.876299 -3.276596,0.876299 z" />
    </g>
</svg>
